<mxfile host="Electron" agent="Mozilla/5.0 (Windows NT 10.0; Win64; x64) AppleWebKit/537.36 (KHTML, like Gecko) draw.io/25.0.2 Chrome/128.0.6613.186 Electron/32.2.5 Safari/537.36" version="25.0.2">
  <diagram name="Página-1" id="9Uo7Y3Mh5LWsdfa7XJdf">
    <mxGraphModel dx="2503" dy="1152" grid="1" gridSize="10" guides="1" tooltips="1" connect="1" arrows="1" fold="1" page="1" pageScale="1" pageWidth="827" pageHeight="1169" math="0" shadow="0">
      <root>
        <mxCell id="0" />
        <mxCell id="1" parent="0" />
        <mxCell id="5sqcDRqsPQu-epUzuh6q-12" style="edgeStyle=orthogonalEdgeStyle;rounded=0;orthogonalLoop=1;jettySize=auto;html=1;entryX=0.5;entryY=0;entryDx=0;entryDy=0;" edge="1" parent="1" source="5sqcDRqsPQu-epUzuh6q-1" target="5sqcDRqsPQu-epUzuh6q-11">
          <mxGeometry relative="1" as="geometry" />
        </mxCell>
        <mxCell id="5sqcDRqsPQu-epUzuh6q-1" value="&lt;font style=&quot;font-size: 21px;&quot;&gt;INICIO&lt;/font&gt;" style="rounded=1;whiteSpace=wrap;html=1;" vertex="1" parent="1">
          <mxGeometry x="174" y="30" width="120" height="60" as="geometry" />
        </mxCell>
        <mxCell id="5sqcDRqsPQu-epUzuh6q-2" value="&lt;span style=&quot;font-size: 21px;&quot;&gt;FIM&lt;/span&gt;" style="rounded=1;whiteSpace=wrap;html=1;" vertex="1" parent="1">
          <mxGeometry x="330" y="1000" width="120" height="60" as="geometry" />
        </mxCell>
        <mxCell id="5sqcDRqsPQu-epUzuh6q-14" style="edgeStyle=orthogonalEdgeStyle;rounded=0;orthogonalLoop=1;jettySize=auto;html=1;entryX=0.5;entryY=0;entryDx=0;entryDy=0;" edge="1" parent="1" source="5sqcDRqsPQu-epUzuh6q-6">
          <mxGeometry relative="1" as="geometry">
            <mxPoint x="369" y="490" as="targetPoint" />
          </mxGeometry>
        </mxCell>
        <mxCell id="5sqcDRqsPQu-epUzuh6q-6" value="(nota1 + nota2 + nota3)&amp;nbsp; /3 = md&amp;nbsp;" style="rounded=0;whiteSpace=wrap;html=1;" vertex="1" parent="1">
          <mxGeometry x="294" y="320" width="236" height="120" as="geometry" />
        </mxCell>
        <mxCell id="5sqcDRqsPQu-epUzuh6q-24" value="" style="edgeStyle=orthogonalEdgeStyle;rounded=0;orthogonalLoop=1;jettySize=auto;html=1;" edge="1" parent="1" source="5sqcDRqsPQu-epUzuh6q-9" target="5sqcDRqsPQu-epUzuh6q-21">
          <mxGeometry relative="1" as="geometry">
            <Array as="points">
              <mxPoint x="633" y="570" />
            </Array>
          </mxGeometry>
        </mxCell>
        <mxCell id="5sqcDRqsPQu-epUzuh6q-9" value="md &amp;gt;= 7" style="rhombus;whiteSpace=wrap;html=1;" vertex="1" parent="1">
          <mxGeometry x="286" y="490" width="166" height="160" as="geometry" />
        </mxCell>
        <mxCell id="5sqcDRqsPQu-epUzuh6q-13" style="edgeStyle=orthogonalEdgeStyle;rounded=0;orthogonalLoop=1;jettySize=auto;html=1;" edge="1" parent="1" source="5sqcDRqsPQu-epUzuh6q-11" target="5sqcDRqsPQu-epUzuh6q-6">
          <mxGeometry relative="1" as="geometry" />
        </mxCell>
        <mxCell id="5sqcDRqsPQu-epUzuh6q-11" value="&lt;font style=&quot;&quot;&gt;&lt;br&gt;&lt;span style=&quot;font-family: Helvetica; font-size: 12px; font-style: normal; font-variant-ligatures: normal; font-variant-caps: normal; font-weight: 400; letter-spacing: normal; orphans: 2; text-align: center; text-indent: 0px; text-transform: none; widows: 2; word-spacing: 0px; -webkit-text-stroke-width: 0px; white-space: normal; text-decoration-thickness: initial; text-decoration-style: initial; text-decoration-color: initial; float: none; display: inline !important;&quot;&gt;nota1 =&lt;/span&gt;&lt;/font&gt;&lt;div style=&quot;forced-color-adjust: none; border-color: rgb(0, 0, 0); font-family: Helvetica; font-size: 12px; font-style: normal; font-variant-ligatures: normal; font-variant-caps: normal; font-weight: 400; letter-spacing: normal; orphans: 2; text-align: center; text-indent: 0px; text-transform: none; widows: 2; word-spacing: 0px; -webkit-text-stroke-width: 0px; white-space: normal; text-decoration-thickness: initial; text-decoration-style: initial; text-decoration-color: initial;&quot;&gt;&lt;font style=&quot;&quot;&gt;nota2 =&lt;/font&gt;&lt;/div&gt;&lt;div style=&quot;forced-color-adjust: none; border-color: rgb(0, 0, 0); font-family: Helvetica; font-size: 12px; font-style: normal; font-variant-ligatures: normal; font-variant-caps: normal; font-weight: 400; letter-spacing: normal; orphans: 2; text-align: center; text-indent: 0px; text-transform: none; widows: 2; word-spacing: 0px; -webkit-text-stroke-width: 0px; white-space: normal; text-decoration-thickness: initial; text-decoration-style: initial; text-decoration-color: initial;&quot;&gt;&lt;font style=&quot;&quot;&gt;nota3 =&lt;/font&gt;&lt;/div&gt;" style="html=1;strokeWidth=2;shape=manualInput;whiteSpace=wrap;rounded=1;size=26;arcSize=11;" vertex="1" parent="1">
          <mxGeometry x="150" y="180" width="130" height="100" as="geometry" />
        </mxCell>
        <mxCell id="5sqcDRqsPQu-epUzuh6q-33" style="edgeStyle=orthogonalEdgeStyle;rounded=0;orthogonalLoop=1;jettySize=auto;html=1;entryX=1;entryY=0.5;entryDx=0;entryDy=0;" edge="1" parent="1" source="5sqcDRqsPQu-epUzuh6q-15" target="5sqcDRqsPQu-epUzuh6q-2">
          <mxGeometry relative="1" as="geometry" />
        </mxCell>
        <mxCell id="5sqcDRqsPQu-epUzuh6q-15" value="Não passou de ano" style="strokeWidth=2;html=1;shape=mxgraph.flowchart.document2;whiteSpace=wrap;size=0.25;" vertex="1" parent="1">
          <mxGeometry x="760" y="850" width="160" height="90" as="geometry" />
        </mxCell>
        <mxCell id="5sqcDRqsPQu-epUzuh6q-31" style="edgeStyle=orthogonalEdgeStyle;rounded=0;orthogonalLoop=1;jettySize=auto;html=1;entryX=0;entryY=0.75;entryDx=0;entryDy=0;" edge="1" parent="1" source="5sqcDRqsPQu-epUzuh6q-16" target="5sqcDRqsPQu-epUzuh6q-2">
          <mxGeometry relative="1" as="geometry" />
        </mxCell>
        <mxCell id="5sqcDRqsPQu-epUzuh6q-16" value="Passou de ano" style="strokeWidth=2;html=1;shape=mxgraph.flowchart.document2;whiteSpace=wrap;size=0.25;" vertex="1" parent="1">
          <mxGeometry x="100" y="670" width="160" height="90" as="geometry" />
        </mxCell>
        <mxCell id="5sqcDRqsPQu-epUzuh6q-17" style="edgeStyle=orthogonalEdgeStyle;rounded=0;orthogonalLoop=1;jettySize=auto;html=1;entryX=0.5;entryY=0;entryDx=0;entryDy=0;entryPerimeter=0;" edge="1" parent="1" source="5sqcDRqsPQu-epUzuh6q-9" target="5sqcDRqsPQu-epUzuh6q-16">
          <mxGeometry relative="1" as="geometry" />
        </mxCell>
        <mxCell id="5sqcDRqsPQu-epUzuh6q-18" value="SIM" style="text;html=1;align=center;verticalAlign=middle;resizable=0;points=[];autosize=1;strokeColor=none;fillColor=none;" vertex="1" parent="1">
          <mxGeometry x="220" y="528" width="40" height="30" as="geometry" />
        </mxCell>
        <mxCell id="5sqcDRqsPQu-epUzuh6q-20" value="NAO" style="text;html=1;align=center;verticalAlign=middle;resizable=0;points=[];autosize=1;strokeColor=none;fillColor=none;" vertex="1" parent="1">
          <mxGeometry x="465" y="528" width="50" height="30" as="geometry" />
        </mxCell>
        <mxCell id="5sqcDRqsPQu-epUzuh6q-21" value="md &amp;lt; 5 &amp;amp;&amp;amp; md &amp;gt;=0" style="rhombus;whiteSpace=wrap;html=1;" vertex="1" parent="1">
          <mxGeometry x="550" y="610" width="166" height="160" as="geometry" />
        </mxCell>
        <mxCell id="5sqcDRqsPQu-epUzuh6q-26" style="edgeStyle=orthogonalEdgeStyle;rounded=0;orthogonalLoop=1;jettySize=auto;html=1;entryX=0.5;entryY=0;entryDx=0;entryDy=0;entryPerimeter=0;" edge="1" parent="1" source="5sqcDRqsPQu-epUzuh6q-21" target="5sqcDRqsPQu-epUzuh6q-15">
          <mxGeometry relative="1" as="geometry" />
        </mxCell>
        <mxCell id="5sqcDRqsPQu-epUzuh6q-32" style="edgeStyle=orthogonalEdgeStyle;rounded=0;orthogonalLoop=1;jettySize=auto;html=1;entryX=0.5;entryY=0;entryDx=0;entryDy=0;" edge="1" parent="1" source="5sqcDRqsPQu-epUzuh6q-27" target="5sqcDRqsPQu-epUzuh6q-2">
          <mxGeometry relative="1" as="geometry" />
        </mxCell>
        <mxCell id="5sqcDRqsPQu-epUzuh6q-27" value="Recuperação" style="strokeWidth=2;html=1;shape=mxgraph.flowchart.document2;whiteSpace=wrap;size=0.25;" vertex="1" parent="1">
          <mxGeometry x="370" y="810" width="160" height="90" as="geometry" />
        </mxCell>
        <mxCell id="5sqcDRqsPQu-epUzuh6q-28" style="edgeStyle=orthogonalEdgeStyle;rounded=0;orthogonalLoop=1;jettySize=auto;html=1;entryX=0.5;entryY=0;entryDx=0;entryDy=0;entryPerimeter=0;" edge="1" parent="1" source="5sqcDRqsPQu-epUzuh6q-21" target="5sqcDRqsPQu-epUzuh6q-27">
          <mxGeometry relative="1" as="geometry" />
        </mxCell>
        <mxCell id="5sqcDRqsPQu-epUzuh6q-29" value="NAO" style="text;html=1;align=center;verticalAlign=middle;resizable=0;points=[];autosize=1;strokeColor=none;fillColor=none;" vertex="1" parent="1">
          <mxGeometry x="465" y="650" width="50" height="30" as="geometry" />
        </mxCell>
        <mxCell id="5sqcDRqsPQu-epUzuh6q-30" value="SIM" style="text;html=1;align=center;verticalAlign=middle;resizable=0;points=[];autosize=1;strokeColor=none;fillColor=none;" vertex="1" parent="1">
          <mxGeometry x="755" y="650" width="40" height="30" as="geometry" />
        </mxCell>
      </root>
    </mxGraphModel>
  </diagram>
</mxfile>
